<svg width="558" height="328" viewBox="0 0 558 328" fill="none" xmlns="http://www.w3.org/2000/svg">
<path d="M82.44 24.16C85.2 28.96 86.76 34.78 87.12 41.62V41.8C87.12 42.64 87.12 43.48 87.12 44.32C87.12 45.04 87.06 45.76 86.94 46.48C86.22 52.24 84.3 57.52 81.18 62.32C78.18 67.12 74.4 71.2 69.84 74.56C65.28 77.92 60.24 80.38 54.72 81.94C49.2 83.38 43.56 83.62 37.8 82.66C37.92 84.34 37.98 86.02 37.98 87.7C37.98 89.26 37.98 91.6 37.98 94.72C37.98 97.72 37.98 101.8 37.98 106.96C38.1 112.12 38.28 119.08 38.52 127.84V128.02C38.4 128.02 38.28 128.08 38.16 128.2C38.16 128.2 38.1 128.2 37.98 128.2C36.3 128.68 34.14 129.04 31.5 129.28C28.98 129.4 26.28 129.52 23.4 129.64C20.64 129.64 17.88 129.58 15.12 129.46C12.36 129.34 9.96 129.16 7.92 128.92C7.56 120.16 7.38 110.68 7.38 100.48C7.38 90.16 7.38 79.6 7.38 68.8C7.38 58 7.32 47.14 7.2 36.22C7.2 25.3 7.02 14.86 6.66 4.89999C11.58 3.57999 16.92 2.61999 22.68 2.02C28.56 1.42 34.38 1.36 40.14 1.84C46.02 2.32 51.72 3.4 57.24 5.08C62.76 6.63999 67.62 9.03999 71.82 12.28C76.14 15.4 79.68 19.36 82.44 24.16ZM59.22 37.66C58.38 36.22 57.18 35.02 55.62 34.06C52.62 31.66 49.14 30.16 45.18 29.56C41.22 28.84 37.32 28.96 33.48 29.92C33.24 29.92 33.06 29.98 32.94 30.1C33.06 32.26 33.06 34.54 32.94 36.94C32.94 39.34 32.94 41.74 32.94 44.14C33.06 46.54 33.18 48.88 33.3 51.16C33.54 53.32 33.96 55.3 34.56 57.1H35.1C37.02 56.98 39.06 56.92 41.22 56.92C43.38 56.8 45.48 56.62 47.52 56.38C49.68 56.14 51.72 55.72 53.64 55.12C55.68 54.4 57.42 53.32 58.86 51.88C59.82 50.56 60.48 49.06 60.84 47.38C61.32 45.7 61.38 44.02 61.02 42.34C60.78 40.66 60.18 39.1 59.22 37.66ZM144.215 58.54C145.055 62.02 145.715 64.78 146.195 66.82L159.695 129.82V130C156.095 130.72 152.135 130.96 147.815 130.72C143.495 130.6 139.415 130.12 135.575 129.28H135.395C134.675 127.36 133.955 125.08 133.235 122.44C132.635 119.8 131.975 117.1 131.255 114.34C130.655 111.58 129.995 108.94 129.275 106.42C128.555 103.9 127.775 101.74 126.935 99.94C125.375 99.7 124.175 99.58 123.335 99.58C122.495 99.58 121.715 99.58 120.995 99.58C120.395 99.58 119.675 99.64 118.835 99.76C118.115 99.76 117.095 99.76 115.775 99.76C114.935 101.68 114.215 103.96 113.615 106.6C113.135 109.12 112.595 111.82 111.995 114.7C111.515 117.46 110.975 120.16 110.375 122.8C109.775 125.44 108.935 127.78 107.855 129.82C107.735 129.82 107.615 129.88 107.495 130C107.495 130 107.435 130 107.315 130C106.355 130.24 103.955 130.24 100.115 130C96.2752 129.76 90.2752 129.7 82.1152 129.82C81.9952 129.82 81.8752 129.76 81.7552 129.64C81.9952 128.8 82.4152 126.46 83.0152 122.62C83.6152 118.78 84.4552 113.8 85.5352 107.68C86.6152 101.56 87.8752 94.54 89.3152 86.62C90.8752 78.58 92.6752 70.06 94.7152 61.06C96.7552 52.06 98.9752 42.7 101.375 32.98C103.775 23.26 106.415 13.6 109.295 3.99999C110.135 3.87999 111.035 3.81999 111.995 3.81999C112.955 3.81999 114.215 3.81999 115.775 3.81999C117.335 3.81999 119.315 3.81999 121.715 3.81999C124.235 3.7 127.475 3.45999 131.435 3.09999C131.795 4.65999 132.335 7.05999 133.055 10.3C133.895 13.42 134.735 17.02 135.575 21.1C136.535 25.06 137.495 29.32 138.455 33.88C139.535 38.44 140.555 42.82 141.515 47.02C142.475 51.22 143.375 55.06 144.215 58.54ZM120.995 78.7C123.275 78.58 125.555 78.52 127.835 78.52C126.635 68.2 125.555 60.16 124.595 54.4C123.755 48.64 122.975 44.74 122.255 42.7C121.655 40.66 120.995 40.24 120.275 41.44C119.675 42.52 119.075 44.8 118.475 48.28C117.995 51.76 117.395 56.14 116.675 61.42C116.075 66.7 115.355 72.4 114.515 78.52C116.555 78.64 118.715 78.7 120.995 78.7ZM245.302 115.24C247.942 119.8 250.162 124.54 251.962 129.46H252.142C247.942 129.46 243.262 129.64 238.102 130C232.942 130.24 227.662 130.18 222.262 129.82H222.082C220.882 127.06 219.382 123.76 217.582 119.92C215.782 116.08 213.802 112.06 211.642 107.86C209.482 103.66 207.142 99.52 204.622 95.44C202.102 91.36 199.582 87.76 197.062 84.64L196.702 84.1C196.342 86.86 196.162 90.28 196.162 94.36C196.162 98.32 196.222 102.46 196.342 106.78C196.582 110.98 196.822 115 197.062 118.84C197.302 122.68 197.482 125.74 197.602 128.02C195.562 128.86 192.862 129.4 189.502 129.64C186.262 129.88 183.022 130 179.782 130C176.542 130.12 173.602 130.12 170.962 130C168.442 129.88 166.882 129.88 166.282 130C166.522 130 166.702 128.38 166.822 125.14C166.942 121.78 167.002 117.4 167.002 112C167.002 106.6 167.002 100.42 167.002 93.46C167.002 86.38 166.942 79.12 166.822 71.68C166.822 64.12 166.702 56.68 166.462 49.36C166.342 41.92 166.222 35.14 166.102 29.02C165.982 22.78 165.802 17.5 165.562 13.18C165.442 8.73999 165.262 5.73999 165.022 4.17999C171.742 3.21999 179.122 2.32 187.162 1.47999C195.202 0.639995 203.602 0.699995 212.362 1.65999C219.442 2.01999 225.802 4.05999 231.442 7.78C237.082 11.5 241.462 16.12 244.582 21.64C247.702 27.16 249.322 33.28 249.442 40C249.682 46.6 247.942 53.02 244.222 59.26C241.942 63.58 238.882 67.18 235.042 70.06C231.322 72.94 226.582 74.56 220.822 74.92H220.102H219.922V75.1C222.442 79.54 225.202 83.98 228.202 88.42C231.202 92.74 234.142 97.12 237.022 101.56C239.902 106 242.662 110.56 245.302 115.24ZM203.722 26.68C199.642 26.8 195.502 27.7 191.302 29.38C191.422 30.94 191.482 32.74 191.482 34.78C191.602 36.7 191.662 38.68 191.662 40.72C191.662 42.76 191.662 44.74 191.662 46.66C191.782 48.58 191.962 50.2 192.202 51.52H192.382C195.142 51.76 198.142 51.94 201.382 52.06C204.622 52.18 207.682 52 210.562 51.52C212.842 51.04 214.582 49.9 215.782 48.1C217.102 46.18 217.882 44.14 218.122 41.98C218.362 39.7 218.122 37.48 217.402 35.32C216.682 33.04 215.482 31.24 213.802 29.92C211.162 27.52 207.802 26.44 203.722 26.68ZM312.366 50.26C309.486 55.3 306.966 60.34 304.806 65.38L335.586 129.28C331.746 130.12 327.546 130.42 322.986 130.18C318.546 129.94 314.406 129.76 310.566 129.64C308.046 126.76 305.706 123.34 303.546 119.38C301.386 115.3 299.286 111.1 297.246 106.78C295.326 102.46 293.406 98.2 291.486 94C289.566 89.8 287.646 86.02 285.726 82.66C285.606 86.14 285.546 89.92 285.546 94C285.666 97.96 285.786 101.98 285.906 106.06C286.026 110.14 286.086 114.16 286.086 118.12C286.206 122.08 286.266 125.74 286.266 129.1C284.586 129.58 282.606 129.88 280.326 130C278.046 130.24 275.646 130.36 273.126 130.36C270.606 130.36 268.146 130.24 265.746 130C263.466 129.76 261.546 129.46 259.986 129.1C259.026 108.46 258.846 87.76 259.446 67C260.166 46.12 260.466 25.18 260.346 4.17999C264.306 4.05999 268.326 4.11999 272.406 4.36C276.606 4.48 280.626 4.54 284.466 4.54C284.706 11.38 284.766 18.58 284.646 26.14C284.526 33.7 284.586 40.9 284.826 47.74C284.826 47.86 284.886 47.8 285.006 47.56C285.246 47.2 285.486 46.9 285.726 46.66C288.246 43.42 290.526 40.06 292.566 36.58C294.606 33.1 296.526 29.56 298.326 25.96C300.246 22.36 302.166 18.76 304.086 15.16C306.126 11.56 308.406 7.95999 310.926 4.36C314.766 4.59999 318.846 4.59999 323.166 4.36C327.486 4.11999 331.566 4.29999 335.406 4.89999C333.966 9.93999 331.926 14.98 329.286 20.02C326.766 25.06 324.006 30.1 321.006 35.14C318.126 40.18 315.246 45.22 312.366 50.26ZM358.083 3.46C360.963 3.58 365.103 3.58 370.503 3.46H374.823V4.17999C374.823 14.5 374.643 24.88 374.283 35.32C374.043 45.76 373.803 56.26 373.563 66.82C373.443 77.26 373.443 87.7 373.563 98.14C373.683 108.58 374.043 118.9 374.643 129.1C373.683 130.06 371.643 130.6 368.523 130.72C365.523 130.96 362.223 131.02 358.623 130.9C355.143 130.78 351.783 130.6 348.543 130.36C345.303 130.24 343.083 130.36 341.883 130.72C342.723 119.92 343.083 109.06 342.963 98.14C342.843 87.22 342.603 76.42 342.243 65.74C342.003 54.94 341.823 44.32 341.703 33.88C341.703 23.32 342.243 13 343.323 2.91999V2.56C343.923 2.43999 345.063 2.49999 346.743 2.74C348.543 2.86 349.863 2.91999 350.703 2.91999C352.863 3.03999 355.323 3.21999 358.083 3.46ZM462.261 130.54C461.421 130.78 459.981 130.9 457.941 130.9C455.541 130.9 452.781 130.72 449.661 130.36C446.541 130.12 443.781 130 441.381 130C437.421 121.12 433.461 112.54 429.501 104.26C425.661 95.86 422.361 87.82 419.601 80.14L417.801 74.74C417.321 73.42 416.841 72.22 416.361 71.14C416.001 69.94 415.701 69.34 415.461 69.34C415.341 69.34 415.161 70.78 414.921 73.66C414.801 76.54 414.681 80.2 414.561 84.64C414.441 89.08 414.321 94 414.201 99.4C414.201 104.8 414.201 110.02 414.201 115.06C414.201 117.82 414.201 120.52 414.201 123.16C414.201 125.68 414.261 127.96 414.381 130C413.061 130.36 411.741 130.6 410.421 130.72C409.101 130.84 407.781 130.9 406.461 130.9C403.581 130.9 400.641 130.72 397.641 130.36C394.761 130 391.941 129.82 389.181 129.82V117.22C389.181 105.82 389.061 94.96 388.821 84.64C388.701 74.32 388.641 63.52 388.641 52.24C388.641 43.96 388.761 35.8 389.001 27.76C389.241 19.6 389.661 11.68 390.261 3.99999C391.461 3.75999 392.721 3.58 394.041 3.46C395.481 3.33999 396.921 3.27999 398.361 3.27999C399.081 3.27999 400.281 3.33999 401.961 3.46C403.641 3.46 405.321 3.58 407.001 3.81999C408.681 3.93999 410.121 4.11999 411.321 4.36C412.641 4.59999 413.301 4.83999 413.301 5.08C414.141 7.23999 414.921 9.03999 415.641 10.48C416.361 11.92 417.021 13.3 417.621 14.62C418.341 15.94 419.061 17.44 419.781 19.12C420.621 20.68 421.581 22.72 422.661 25.24C422.901 25.84 423.441 26.98 424.281 28.66C425.121 30.34 426.081 32.32 427.161 34.6C428.241 36.76 429.381 39.1 430.581 41.62C431.781 44.02 432.861 46.24 433.821 48.28C434.901 50.2 435.801 51.88 436.521 53.32C437.241 54.64 437.661 55.3 437.781 55.3C438.141 55.06 438.441 53.86 438.681 51.7C438.921 49.54 439.041 47.44 439.041 45.4C439.041 40.6 438.921 36.16 438.681 32.08C438.561 27.88 438.501 23.62 438.501 19.3C438.501 16.78 438.501 14.26 438.501 11.74C438.621 9.1 438.741 6.27999 438.861 3.27999C442.941 2.55999 447.261 2.19999 451.821 2.19999C456.261 2.19999 460.221 2.55999 463.701 3.27999V61.24C463.821 66.28 463.881 71.38 463.881 76.54C463.881 81.7 463.881 86.86 463.881 92.02C463.881 95.5 463.821 98.86 463.701 102.1C463.701 105.34 463.701 108.64 463.701 112C463.701 114.4 463.701 116.8 463.701 119.2C463.821 121.6 463.881 124 463.881 126.4V130C463.641 130.12 463.101 130.3 462.261 130.54ZM514.65 67.54C514.65 67.54 514.77 67.48 515.01 67.36C516.57 66.4 519.09 65.86 522.57 65.74C526.17 65.5 529.95 65.44 533.91 65.56C537.87 65.68 541.53 65.92 544.89 66.28C548.37 66.52 550.71 66.64 551.91 66.64H552.27L552.45 66.82C553.17 73.18 553.65 79.96 553.89 87.16C554.13 94.24 553.65 101.02 552.45 107.5C551.85 113.62 549.99 118.3 546.87 121.54C543.75 124.78 539.91 127.24 535.35 128.92C532.35 129.76 529.23 130.48 525.99 131.08C522.75 131.8 519.45 132.28 516.09 132.52C512.73 132.88 509.43 132.88 506.19 132.52C503.07 132.16 500.07 131.38 497.19 130.18C492.39 128.14 488.73 125.38 486.21 121.9C483.69 118.42 481.71 114.1 480.27 108.94C479.91 107.62 479.49 105.82 479.01 103.54C478.65 101.14 478.35 98.74 478.11 96.34C477.75 92.5 477.45 89.02 477.21 85.9C476.97 82.78 476.73 79.72 476.49 76.72C476.37 73.6 476.25 70.36 476.13 67C476.13 63.52 476.19 59.56 476.31 55.12C476.43 51.28 476.61 47.38 476.85 43.42C477.09 39.34 477.51 35.38 478.11 31.54C478.71 27.58 479.73 23.74 481.17 20.02C482.73 16.3 485.25 13.24 488.73 10.84C491.13 8.79999 493.83 7.3 496.83 6.33999C499.83 5.37999 502.95 4.65999 506.19 4.17999C512.79 3.33999 519.09 3.57999 525.09 4.89999C531.09 6.09999 536.25 8.31999 540.57 11.56C544.89 14.8 548.13 19.12 550.29 24.52C552.45 29.8 553.11 36.1 552.27 43.42L552.09 44.5C551.85 44.86 551.31 45.04 550.47 45.04C549.63 45.04 548.25 45.1 546.33 45.22C544.53 45.22 542.97 45.28 541.65 45.4C540.45 45.4 539.19 45.4 537.87 45.4C536.67 45.4 535.41 45.34 534.09 45.22C532.77 45.1 531.21 44.92 529.41 44.68C529.05 43.48 528.51 42.04 527.79 40.36C527.19 38.56 526.35 36.94 525.27 35.5C524.31 33.94 523.17 32.62 521.85 31.54C520.53 30.34 518.97 29.74 517.17 29.74C515.13 29.62 513.15 29.56 511.23 29.56C509.31 29.56 507.63 30.28 506.19 31.72C505.95 31.96 505.59 32.62 505.11 33.7C504.75 34.66 504.45 35.62 504.21 36.58C503.37 39.46 502.65 42.94 502.05 47.02C501.57 51.1 501.21 55.48 500.97 60.16C500.73 64.72 500.67 69.46 500.79 74.38C500.91 79.3 501.15 83.98 501.51 88.42C501.75 91.06 502.23 93.94 502.95 97.06C503.67 100.18 505.17 102.64 507.45 104.44C508.53 105.16 509.91 105.7 511.59 106.06C513.39 106.3 515.25 106.24 517.17 105.88C519.21 105.52 521.07 105.04 522.75 104.44C524.07 103.84 525.21 103.06 526.17 102.1C527.13 101.02 527.85 99.64 528.33 97.96C528.45 97.48 528.57 96.7 528.69 95.62C528.93 94.42 529.05 93.22 529.05 92.02C529.17 90.82 529.17 89.74 529.05 88.78C529.05 87.82 528.87 87.28 528.51 87.16C527.79 87.04 526.77 87.04 525.45 87.16C524.25 87.16 522.93 87.22 521.49 87.34C520.17 87.34 518.91 87.34 517.71 87.34C516.63 87.22 515.79 87.04 515.19 86.8C514.95 84.88 514.77 83.2 514.65 81.76C514.65 80.32 514.65 78.94 514.65 77.62C514.77 76.18 514.83 74.74 514.83 73.3C514.83 71.86 514.71 70.06 514.47 67.9V67.72C514.47 67.6 514.53 67.54 514.65 67.54Z" fill="white"/>
<path d="M301.08 265.38C301.08 266.58 301.14 267.66 301.26 268.62C301.5 272.94 301.62 276.24 301.62 278.52C301.62 280.68 301.44 282.3 301.08 283.38C300.84 284.34 300.36 284.88 299.64 285C298.92 285 297.9 285 296.58 285C295.26 284.88 293.52 284.88 291.36 285C289.32 285.12 285.78 285.24 280.74 285.36C275.82 285.48 268.98 285.54 260.22 285.54C251.58 285.54 240 285.42 225.48 285.18V281.94C225.84 272.94 226.14 264.84 226.38 257.64C226.62 250.32 226.74 243.54 226.74 237.3C226.86 230.94 226.92 224.82 226.92 218.94C226.92 213.06 226.86 207.06 226.74 200.94C226.62 194.82 226.5 188.34 226.38 181.5C226.26 174.54 226.14 166.86 226.02 158.46C227.22 157.98 229.08 157.62 231.6 157.38C234.12 157.02 236.82 156.84 239.7 156.84C242.58 156.84 245.4 157.02 248.16 157.38C250.92 157.74 253.14 158.28 254.82 159C254.58 166.8 254.46 174.84 254.46 183.12C254.58 191.28 254.7 199.5 254.82 207.78C254.94 216.06 255 224.34 255 232.62C255.12 240.78 255.12 248.7 255 256.38V256.56C255.84 256.32 257.4 256.26 259.68 256.38C262.08 256.38 264.84 256.44 267.96 256.56C271.08 256.68 274.38 256.86 277.86 257.1C281.46 257.22 284.82 257.34 287.94 257.46C291.18 257.58 294 257.7 296.4 257.82C298.92 257.82 300.66 257.76 301.62 257.64C301.62 258.96 301.56 260.28 301.44 261.6C301.32 262.8 301.2 264.06 301.08 265.38ZM373.249 167.46C376.729 170.58 379.189 174.24 380.629 178.44C381.469 180.24 382.069 182.1 382.429 184.02C382.909 185.82 383.269 187.68 383.509 189.6C383.749 192.6 383.869 195.6 383.869 198.6C383.989 201.48 383.989 204.42 383.869 207.42C383.509 213.78 383.389 219.96 383.509 225.96C383.629 231.96 383.449 238.08 382.969 244.32L382.429 250.26C382.189 254.46 381.529 258.72 380.449 263.04C379.369 267.24 377.749 271.08 375.589 274.56C373.549 277.44 370.849 279.78 367.489 281.58C364.249 283.26 360.769 284.58 357.049 285.54C353.689 286.5 350.269 287.1 346.789 287.34C343.429 287.58 340.009 287.58 336.529 287.34C334.009 287.1 331.549 286.74 329.149 286.26C326.869 285.9 324.649 285.24 322.489 284.28C320.449 283.32 318.589 282.12 316.909 280.68C315.229 279.12 313.849 277.14 312.769 274.74C311.089 271.74 309.949 268.56 309.349 265.2C308.869 261.72 308.569 258.24 308.449 254.76C308.089 245.4 307.669 236.04 307.189 226.68C306.829 217.2 306.949 207.72 307.549 198.24C307.669 192.84 308.329 187.44 309.529 182.04C310.849 176.52 313.369 171.66 317.089 167.46C318.289 166.26 319.669 165.18 321.229 164.22C325.189 162.3 329.449 160.92 334.009 160.08C338.689 159.12 343.309 158.76 347.869 159C352.549 159.24 357.049 160.08 361.369 161.52C365.809 162.84 369.769 164.82 373.249 167.46ZM361.369 231V222.36L361.009 210.12C361.009 210 360.889 208.8 360.649 206.52C360.529 204.12 360.409 201.9 360.289 199.86C360.049 196.5 359.089 193.44 357.409 190.68C355.849 187.92 353.689 185.88 350.929 184.56C348.529 183.6 346.069 183.42 343.549 184.02C341.029 184.62 338.809 185.64 336.889 187.08C332.689 190.32 329.869 194.46 328.429 199.5C327.469 204.06 326.869 208.86 326.629 213.9C326.509 218.94 326.569 223.98 326.809 229.02C327.409 233.22 327.829 237.54 328.069 241.98C328.309 246.3 329.029 250.44 330.229 254.4C331.429 256.8 333.169 258.66 335.449 259.98C337.729 261.3 340.189 262.08 342.829 262.32C345.469 262.44 348.109 262.08 350.749 261.24C353.389 260.28 355.609 258.78 357.409 256.74C358.489 255.3 359.269 254.16 359.749 253.32C360.229 252.36 360.529 251.34 360.649 250.26C360.769 249.18 360.769 247.92 360.649 246.48C360.649 244.92 360.769 242.88 361.009 240.36C361.129 237.96 361.189 235.86 361.189 234.06C361.309 232.26 361.369 231.24 361.369 231ZM428.58 158.1C441.66 157.98 454.38 158.58 466.74 159.9C466.98 163.86 467.04 168.42 466.92 173.58C466.92 178.74 466.62 183.48 466.02 187.8C463.74 187.32 460.92 187.14 457.56 187.26C454.2 187.38 449.7 187.56 444.06 187.8H443.7H443.52C443.52 187.92 443.46 188.04 443.34 188.16C443.34 188.16 443.34 188.22 443.34 188.34C443.22 188.94 443.1 189.9 442.98 191.22C442.98 192.42 442.98 194.4 442.98 197.16C442.98 199.8 442.98 203.34 442.98 207.78C443.1 212.1 443.22 217.74 443.34 224.7C443.46 231.54 443.58 239.82 443.7 249.54C443.82 259.14 444 270.48 444.24 283.56V283.74V283.92C442.08 284.28 439.68 284.52 437.04 284.64C434.52 284.64 431.94 284.64 429.3 284.64C426.78 284.64 424.26 284.64 421.74 284.64C419.22 284.64 416.88 284.82 414.72 285.18C414.6 284.7 414.6 282.54 414.72 278.7C414.84 274.86 414.9 269.16 414.9 261.6C415.02 253.92 414.96 244.14 414.72 232.26C414.6 220.38 414.18 206.04 413.46 189.24L413.28 189.06C411.84 188.34 410.04 187.92 407.88 187.8C405.72 187.56 403.56 187.44 401.4 187.44C399.24 187.32 397.26 187.26 395.46 187.26C393.66 187.26 392.4 187.14 391.68 186.9C391.44 186.42 391.2 185.22 390.96 183.3C390.84 181.38 390.72 179.1 390.6 176.46C390.6 173.7 390.6 170.76 390.6 167.64C390.6 164.52 390.72 161.52 390.96 158.64C390.96 158.52 390.9 158.46 390.78 158.46C390.78 158.46 390.78 158.4 390.78 158.28C403.02 158.16 415.62 158.1 428.58 158.1ZM549.965 177.36C553.085 183.24 553.805 190.68 552.125 199.68H551.945C547.745 200.4 543.245 200.88 538.445 201.12C533.645 201.24 529.145 200.7 524.945 199.5C525.665 196.26 525.005 193.56 522.965 191.4C520.925 189.24 518.465 187.86 515.585 187.26C512.705 186.66 509.885 186.96 507.125 188.16C504.485 189.36 502.925 191.64 502.445 195C502.205 195.84 502.085 196.68 502.085 197.52C502.205 198.24 502.325 199.02 502.445 199.86C503.405 202.74 504.965 204.66 507.125 205.62C509.285 206.58 511.625 207.24 514.145 207.6C520.505 208.32 526.385 210.36 531.785 213.72C537.305 217.08 541.805 221.34 545.285 226.5C547.445 229.26 549.065 232.26 550.145 235.5C551.225 238.62 551.825 241.86 551.945 245.22C552.185 248.58 551.945 252 551.225 255.48C550.625 258.84 549.605 262.08 548.165 265.2C546.725 268.92 544.805 272.1 542.405 274.74C540.005 277.38 537.245 279.54 534.125 281.22C531.125 282.9 527.825 284.16 524.225 285C520.745 285.72 517.145 286.02 513.425 285.9C508.145 285.78 502.865 284.88 497.585 283.2C492.425 281.4 487.805 278.94 483.725 275.82C479.645 272.7 476.405 268.92 474.005 264.48C471.605 259.92 470.585 254.76 470.945 249V248.46V247.92C475.145 247.32 479.765 247.2 484.805 247.56C489.845 247.8 494.405 247.86 498.485 247.74C498.725 251.58 500.225 254.46 502.985 256.38C505.865 258.3 508.865 259.26 511.985 259.26C515.225 259.14 517.985 258.06 520.265 256.02C522.665 253.98 523.505 250.86 522.785 246.66C522.425 243.78 521.345 241.5 519.545 239.82C517.745 238.02 515.585 236.58 513.065 235.5C510.665 234.42 508.025 233.64 505.145 233.16C502.265 232.56 499.565 232.02 497.045 231.54C494.645 231.06 492.425 230.28 490.385 229.2C488.345 228.12 486.485 226.86 484.805 225.42C479.285 220.14 475.685 214.32 474.005 207.96C472.445 201.6 472.385 195.42 473.825 189.42C475.265 183.42 477.965 177.96 481.925 173.04C486.005 168.12 490.925 164.46 496.685 162.06C499.565 160.86 502.745 160.08 506.225 159.72C509.705 159.24 513.185 159.12 516.665 159.36C520.265 159.48 523.745 159.96 527.105 160.8C530.585 161.64 533.765 162.72 536.645 164.04C542.405 167.04 546.845 171.48 549.965 177.36Z" fill="white"/>
<path d="M21.6745 248.824H126.186V269.271H21.6745V248.824Z" fill="#5B5E5E"/>
<path d="M46.6744 253.596C51.5437 253.596 54.7503 260.315 53.7408 268.567C52.7313 276.819 47.9808 283.537 43.1115 283.537H35.3919C35.095 281.639 35.8075 270.831 36.0451 268.567C36.9952 260.315 41.7457 253.596 46.6744 253.596Z" fill="#2A2B2A"/>
<path d="M40.5577 253.596C45.427 253.596 49.8213 260.315 50.4152 268.567C50.9496 276.819 47.446 283.537 42.5174 283.537H34.7977C34.1445 281.639 32.8381 270.831 32.7194 268.567C32.1256 260.315 35.6291 253.596 40.5577 253.596Z" fill="#5B5E5E"/>
<path d="M25.1156 270.149C24.0495 261.961 26.9403 254.586 31.5724 253.676C36.2046 252.767 40.824 258.667 41.8901 266.855C42.9562 275.043 40.0653 282.418 35.4332 283.328C30.801 284.237 26.1817 278.337 25.1156 270.149Z" fill="#2A2B2A"/>
<path d="M28.1438 269.554C27.4658 264.347 29.3153 259.655 32.2748 259.074C35.2344 258.493 38.1831 262.243 38.8611 267.45C39.5391 272.657 37.6896 277.349 34.7301 277.93C31.7706 278.511 28.8218 274.761 28.1438 269.554Z" fill="#F3F1ED"/>
<path d="M127.433 253.596C132.302 253.596 135.509 260.315 134.5 268.567C133.49 276.819 128.74 283.537 123.87 283.537H116.151C115.854 281.639 116.566 270.831 116.804 268.567C117.754 260.315 122.505 253.596 127.433 253.596Z" fill="#2A2B2A"/>
<path d="M121.317 253.596C126.186 253.596 130.58 260.315 131.174 268.567C131.709 276.819 128.205 283.537 123.276 283.537H115.557C114.904 281.639 113.597 270.831 113.478 268.567C112.885 260.315 116.388 253.596 121.317 253.596Z" fill="#5B5E5E"/>
<path d="M105.875 270.148C104.809 261.96 107.7 254.585 112.332 253.676C116.964 252.766 121.583 258.667 122.649 266.855C123.715 275.043 120.825 282.418 116.192 283.327C111.56 284.237 106.941 278.336 105.875 270.148Z" fill="#2A2B2A"/>
<path d="M108.903 269.554C108.225 264.347 110.075 259.655 113.034 259.074C115.994 258.493 118.943 262.243 119.621 267.449C120.299 272.656 118.449 277.348 115.49 277.929C112.53 278.51 109.581 274.76 108.903 269.554Z" fill="#F3F1ED"/>
<path d="M88.5973 253.596C94.1792 253.596 98.6922 260.315 98.7516 268.567C98.7516 276.819 94.2386 283.537 88.5973 283.537H79.7494C79.1556 281.639 78.5024 270.831 78.5024 268.567C78.4431 260.315 83.0154 253.596 88.5973 253.596Z" fill="#5B5E5E"/>
<path d="M78.6213 253.596C84.025 253.596 88.8349 260.315 89.4287 268.567C90.0226 276.819 86.1628 283.537 80.759 283.537C75.3553 283.537 70.5453 276.819 69.9515 268.567C69.3577 260.315 73.2176 253.596 78.6213 253.596Z" fill="#2A2B2A"/>
<path d="M167.694 253.596C173.098 253.596 177.907 260.315 178.501 268.567C179.095 276.819 175.235 283.537 169.832 283.537H161.34C160.627 281.639 159.202 270.831 159.024 268.567C158.43 260.315 162.29 253.596 167.694 253.596Z" fill="#5B5E5E"/>
<path d="M159.381 253.596C164.784 253.596 169.594 260.315 170.188 268.567C170.782 276.819 166.922 283.537 161.518 283.537C156.115 283.537 151.305 276.819 150.711 268.567C150.117 260.315 153.977 253.596 159.381 253.596Z" fill="#2A2B2A"/>
<path d="M2.37526 226.941L30.8785 197H124.702L158.133 224.02L192.812 233.002L194 238.114L188.834 269.297H125.77L121.198 251.405H106.353L102.137 269.297H44.7144L40.4389 252.135H26.1873L21.8524 269.297H4.15672L0 237.895L2.37526 226.941Z" fill="#E3E1DC"/>
<path d="M4.15677 269.297L2.79097 259.073L95.664 222.194L101.602 223.655H106.946L136.637 232.418L134.262 238.991L132.302 269.297H125.77L121.198 251.405H106.353L102.137 269.297H44.7144L40.439 252.136H26.1874L21.8525 269.297H4.15677Z" fill="#F3F1ED"/>
<path d="M64.5482 223.655H102.552L86.5194 199.556H68.7049L64.5482 223.655Z" fill="#0D2241"/>
<path d="M62.1723 223.655H23.5742L38.4196 199.556H66.9229L62.1723 223.655Z" fill="#0D2241"/>
<path d="M153.027 221.464H108.134L92.4574 199.556H126.305L153.027 221.464Z" fill="#0D2241"/>
<mask id="mask0_226_571" style="mask-type:luminance" maskUnits="userSpaceOnUse" x="90" y="199" width="60" height="23">
<path d="M90.2008 199.556H124.048L149.642 221.464H107.481L90.2008 199.556Z" fill="white"/>
</mask>
<g mask="url(#mask0_226_571)">
<path d="M89.1319 195.905L129.512 222.925H133.906L95.7233 196.635L89.1319 195.905Z" fill="#484A71"/>
</g>
<mask id="mask1_226_571" style="mask-type:luminance" maskUnits="userSpaceOnUse" x="91" y="199" width="59" height="23">
<path d="M91.3884 199.556H125.236L149.642 221.464H107.481L91.3884 199.556Z" fill="white"/>
</mask>
<g mask="url(#mask1_226_571)">
<path d="M142.813 222.413L103.265 195.539L94.5952 196.489L139.31 227.306L142.813 222.413Z" fill="#313155"/>
</g>
<path d="M30.9377 201.017L12.2325 216.571L27.0779 201.017H30.9377Z" fill="#0D2241"/>
<mask id="mask2_226_571" style="mask-type:luminance" maskUnits="userSpaceOnUse" x="0" y="197" width="194" height="73">
<path d="M2.37526 226.941L30.8785 197H124.702L158.133 224.02L192.812 233.002L194 238.114L188.834 269.297H125.77L121.198 251.405H106.353L102.137 269.297H44.7144L40.4389 252.135H26.1873L21.8524 269.297H4.15672L0 237.895L2.37526 226.941Z" fill="white"/>
</mask>
<g mask="url(#mask2_226_571)">
<path d="M178.798 246.293H149.107L147.326 237.53H181.767L178.798 246.293Z" fill="#2A2B2A"/>
</g>
<mask id="mask3_226_571" style="mask-type:luminance" maskUnits="userSpaceOnUse" x="0" y="197" width="194" height="73">
<path d="M2.37526 226.941L30.8785 197H124.702L158.133 224.02L192.812 233.002L194 238.114L188.834 269.297H125.77L121.198 251.405H106.353L102.137 269.297H44.7144L40.4389 252.135H26.1873L21.8524 269.297H4.15672L0 237.895L2.37526 226.941Z" fill="white"/>
</mask>
<g mask="url(#mask3_226_571)">
<path d="M9.56055 233.879H-1.3657L-0.949986 237.53H8.90736L9.56055 233.879Z" fill="#FFEDCC"/>
</g>
<mask id="mask4_226_571" style="mask-type:luminance" maskUnits="userSpaceOnUse" x="0" y="197" width="194" height="73">
<path d="M2.37526 226.941L30.8785 197H124.702L158.133 224.02L192.812 233.002L194 238.114L188.834 269.297H125.77L121.198 251.405H106.353L102.137 269.297H44.7144L40.4389 252.135H26.1873L21.8524 269.297H4.15672L0 237.895L2.37526 226.941Z" fill="white"/>
</mask>
<g mask="url(#mask4_226_571)">
<path d="M8.96655 237.53H-3.02852L-1.84089 247.754H7.1851L8.96655 237.53Z" fill="#AD2024"/>
</g>
<mask id="mask5_226_571" style="mask-type:luminance" maskUnits="userSpaceOnUse" x="0" y="197" width="194" height="73">
<path d="M2.37526 226.941L30.8785 197H124.702L158.133 224.02L192.812 233.002L194 238.114L188.834 269.297H125.77L121.198 251.405H106.353L102.137 269.297H44.7144L40.4389 252.135H26.1873L21.8524 269.297H4.15672L0 237.895L2.37526 226.941Z" fill="white"/>
</mask>
<g mask="url(#mask5_226_571)">
<path d="M145.545 247.754H122.98L122.386 237.53H147.326L145.545 247.754Z" fill="#FFEDCC"/>
</g>
<mask id="mask6_226_571" style="mask-type:luminance" maskUnits="userSpaceOnUse" x="0" y="197" width="194" height="73">
<path d="M2.37526 226.941L30.8785 197H124.702L158.133 224.02L192.812 233.002L194 238.114L188.834 269.297H125.77L121.198 251.405H106.353L102.137 269.297H44.7144L40.4389 252.135H26.1873L21.8524 269.297H4.15672L0 237.895L2.37526 226.941Z" fill="white"/>
</mask>
<g mask="url(#mask6_226_571)">
<path d="M181.173 247.754L178.204 246.293L181.767 237.53L181.173 247.754Z" fill="#EE9B74"/>
</g>
<mask id="mask7_226_571" style="mask-type:luminance" maskUnits="userSpaceOnUse" x="0" y="197" width="194" height="73">
<path d="M2.37526 226.941L30.8785 197H124.702L158.133 224.02L192.812 233.002L194 238.114L188.834 269.297H125.77L121.198 251.405H106.353L102.137 269.297H44.7144L40.4389 252.135H26.1873L21.8524 269.297H4.15672L0 237.895L2.37526 226.941Z" fill="white"/>
</mask>
<g mask="url(#mask7_226_571)">
<path d="M145.544 247.754L149.107 246.293L147.326 237.53L145.544 247.754Z" fill="#EE9B74"/>
</g>
<mask id="mask8_226_571" style="mask-type:luminance" maskUnits="userSpaceOnUse" x="0" y="197" width="194" height="73">
<path d="M2.37526 226.941L30.8785 197H124.702L158.133 224.02L192.812 233.002L194 238.114L188.834 269.297H125.77L121.198 251.405H106.353L102.137 269.297H44.7144L40.4389 252.135H26.1873L21.8524 269.297H4.15672L0 237.895L2.37526 226.941Z" fill="white"/>
</mask>
<g mask="url(#mask8_226_571)">
<path d="M203.739 247.754H181.174L181.767 237.53H205.52L203.739 247.754Z" fill="#FFEDCC"/>
</g>
<mask id="mask9_226_571" style="mask-type:luminance" maskUnits="userSpaceOnUse" x="0" y="197" width="194" height="73">
<path d="M2.37526 226.941L30.8785 197H124.702L158.133 224.02L192.812 233.002L194 238.114L188.834 269.297H125.77L121.198 251.405H106.353L102.137 269.297H44.7144L40.4389 252.135H26.1873L21.8524 269.297H4.15672L0 237.895L2.37526 226.941Z" fill="white"/>
</mask>
<g mask="url(#mask9_226_571)">
<path d="M150.295 240.159H178.204L177.136 243.372H150.948L150.295 240.159Z" fill="#5B5E5E"/>
</g>
<path d="M92.1012 223.655L95.0703 214.892L88.5383 212.701L82.6002 214.892C82.6002 214.892 82.6002 220.734 84.3816 220.734H90.9136L90.3198 223.655H92.1012Z" fill="#E3E1DC"/>
<path d="M93.2889 220.734H90.9136L93.2295 214.381L95.0703 214.892L93.2889 220.734Z" fill="#C0BDBA"/>
</svg>
