<svg width="60" height="64" viewBox="0 0 60 64" fill="none" xmlns="http://www.w3.org/2000/svg">
<rect y="4" width="60" height="60" rx="2" fill="#23D45F"/>
<path d="M44.94 27.6C44.94 28.36 44.92 28.9 44.88 29.22C44.6 31.5 43.72 33.6 42.24 35.52C40.76 37.44 38.92 38.96 36.72 40.08C34.52 41.16 32.2 41.7 29.76 41.7C29.64 41.7 29.48 41.72 29.28 41.76C29.08 41.76 28.84 41.74 28.56 41.7C28.6 42.18 28.6 42.66 28.56 43.14C28.56 43.62 28.56 44.06 28.56 44.46V56.64L27.9 56.7C26.82 57.02 24.94 57.18 22.26 57.18C20.26 57.18 18.42 57.08 16.74 56.88C16.58 53 16.5 46.26 16.5 36.66V29.4C16.5 22.88 16.44 18.14 16.32 15.18C19.4 14.3 22.62 13.86 25.98 13.86C31.14 13.86 35.52 14.96 39.12 17.16C42.76 19.32 44.7 22.78 44.94 27.54V27.6ZM33.06 24.9C32.42 24.34 31.72 23.98 30.96 23.82C30.2 23.66 29.42 23.58 28.62 23.58C27.86 23.54 27.28 23.52 26.88 23.52C26.92 24.16 26.94 25.24 26.94 26.76V27.3C26.94 28.5 26.96 29.5 27 30.3C27.08 31.06 27.22 31.74 27.42 32.34H28.26C28.54 32.34 29.12 32.34 30 32.34C30.92 32.34 31.7 32.22 32.34 31.98C33.02 31.74 33.54 31.34 33.9 30.78C34.3 30.1 34.5 29.32 34.5 28.44C34.5 27.36 34.18 26.36 33.54 25.44L33.06 24.9Z" fill="white"/>
<ellipse cx="29.5" cy="28" rx="5.5" ry="6" fill="white"/>
<path d="M38 42C43 41.375 44 37 44 37" stroke="white"/>
<path d="M40.3177 43.3762C44.4175 42.4805 44.9127 38.9169 44.9127 38.9169" stroke="white"/>
<path d="M19 16.8227V54.5001C19 54.5001 21.1193 55 22.5 55C23.8807 55 26 54.5001 26 54.5001V38.0001C26 38.0001 29.1364 38.0946 30.5 38.0001C32.6779 37.8491 34.0403 37.962 36 37.0001C37.8633 36.0854 38.7228 35.1363 40 33.5001C41.3433 31.7791 42 28.5 42 28.5C42 28.5 42.4486 25.8974 41.5 24C41 22.9999 39.5 21 39.5 21C39.5 21 35.403 17.6411 32 16.8227C26.5 15.5 19 16.8227 19 16.8227Z" stroke="#23D45F" stroke-width="2"/>
</svg>
