<svg width="140" height="140" viewBox="0 0 140 140" fill="none" xmlns="http://www.w3.org/2000/svg">
<rect width="140" height="140" rx="3" fill="#23D45F"/>
<path d="M102.56 59.3C102.56 60.9467 102.517 62.1167 102.43 62.81C101.824 67.75 99.9171 72.3 96.7104 76.46C93.5038 80.62 89.5171 83.9133 84.7504 86.34C79.9838 88.68 74.9571 89.85 69.6704 89.85C69.4104 89.85 69.0638 89.8933 68.6304 89.98C68.1971 89.98 67.6771 89.9367 67.0704 89.85C67.1571 90.89 67.1571 91.93 67.0704 92.97C67.0704 94.01 67.0704 94.9633 67.0704 95.83V122.22L65.6404 122.35C63.3004 123.043 59.2271 123.39 53.4204 123.39C49.0871 123.39 45.1004 123.173 41.4604 122.74C41.1138 114.333 40.9404 99.73 40.9404 78.93V63.2C40.9404 49.0733 40.8104 38.8033 40.5504 32.39C47.2238 30.4833 54.2004 29.53 61.4804 29.53C72.6604 29.53 82.1504 31.9133 89.9504 36.68C97.8371 41.36 102.04 48.8567 102.56 59.17V59.3ZM76.8204 53.45C75.4338 52.2367 73.9171 51.4567 72.2704 51.11C70.6238 50.7633 68.9338 50.59 67.2004 50.59C65.5538 50.5033 64.2971 50.46 63.4304 50.46C63.5171 51.8467 63.5604 54.1867 63.5604 57.48V58.65C63.5604 61.25 63.6038 63.4167 63.6904 65.15C63.8638 66.7967 64.1671 68.27 64.6004 69.57H66.4204C67.0271 69.57 68.2838 69.57 70.1904 69.57C72.1838 69.57 73.8738 69.31 75.2604 68.79C76.7338 68.27 77.8604 67.4033 78.6404 66.19C79.5071 64.7167 79.9404 63.0267 79.9404 61.12C79.9404 58.78 79.2471 56.6133 77.8604 54.62L76.8204 53.45Z" fill="white"/>
<path d="M94.8472 97.2671C105.777 94.887 107 85 107 85" stroke="white" stroke-width="2"/>
<path d="M88 93C101.333 91.125 104 78 104 78" stroke="white" stroke-width="2"/>
<path d="M46 35.3221V118.876C46 118.876 50.763 120 53.8661 120C56.9692 120 61.7322 118.876 61.7322 118.876V82.421C61.7322 82.421 68.381 82.6336 71.4455 82.421C76.3402 82.0816 80.0235 81.5782 84.4279 79.4147C88.6156 77.3577 90.3262 75.3263 93.1965 71.6464C96.2154 67.7761 97.9297 62.3789 97.9297 62.3789C97.9297 62.3789 98.5037 54.1198 96.3718 49.8526C95.248 47.6035 91.6981 44.3411 91.6981 44.3411C91.6981 44.3411 82.2093 37.1627 74.5613 35.3221C62.2003 32.3473 46 35.3221 46 35.3221Z" stroke="#23D45F" stroke-width="2"/>
<ellipse cx="70.5" cy="59" rx="13.5" ry="13" fill="white"/>
</svg>
